<svg xmlns="http://www.w3.org/2000/svg" xmlns:xlink="http://www.w3.org/1999/xlink" width="2000" zoomAndPan="magnify" viewBox="0 0 1500 1499.999933" height="2000" preserveAspectRatio="xMidYMid meet" version="1.0"><path fill="#fff3ea" d="M 957.71875 828.539062 C 967.203125 803.503906 972.011719 777.144531 972.011719 750 C 972.011719 712.058594 962.4375 676.3125 945.59375 645.039062 C 945.550781 644.945312 945.523438 644.847656 945.476562 644.75 C 945.222656 644.179688 944.910156 643.652344 944.5625 643.160156 C 906.742188 574.546875 833.699219 527.957031 749.96875 527.957031 C 722.828125 527.957031 696.464844 532.769531 671.421875 542.265625 C 670.085938 534.746094 667.960938 527.273438 665.015625 519.953125 C 653.894531 492.3125 632.679688 470.660156 605.277344 458.984375 C 577.878906 447.308594 547.5625 447.003906 519.925781 458.125 C 462.878906 481.082031 435.144531 546.171875 458.09375 603.214844 C 472.832031 639.820312 505.046875 664.972656 542.21875 671.472656 C 532.734375 696.53125 527.925781 722.882812 527.925781 750 C 527.925781 787.90625 537.480469 823.617188 554.296875 854.867188 C 554.351562 855.007812 554.394531 855.144531 554.457031 855.285156 C 554.710938 855.851562 555.03125 856.363281 555.375 856.847656 C 593.199219 925.457031 666.238281 972.042969 749.96875 972.042969 C 777.113281 972.042969 803.476562 967.226562 828.527344 957.730469 C 829.859375 965.25 831.980469 972.722656 834.925781 980.046875 C 846.042969 1007.683594 867.261719 1029.335938 894.671875 1041.015625 C 908.726562 1047.003906 923.542969 1050 938.371094 1050 C 952.457031 1050 966.554688 1047.296875 980.015625 1041.878906 C 1007.652344 1030.757812 1029.308594 1009.542969 1040.984375 982.140625 C 1052.65625 954.742188 1052.964844 924.429688 1041.84375 896.785156 C 1027.097656 860.160156 994.878906 835.015625 957.71875 828.539062 Z M 938.195312 826.902344 C 934.355469 826.917969 930.488281 827.109375 926.605469 827.53125 L 891.761719 800.988281 C 889.128906 798.988281 885.640625 798.515625 882.570312 799.75 C 879.503906 800.984375 877.3125 803.742188 876.804688 807.007812 L 874.875 819.367188 C 863.386719 816.257812 851.738281 813.585938 839.964844 811.359375 C 842.257812 791.664062 843.445312 771.054688 843.445312 750 C 843.445312 728.945312 842.253906 708.320312 839.960938 688.621094 C 872.15625 682.523438 903.316406 673.164062 932.566406 660.734375 C 945.800781 687.699219 953.246094 717.992188 953.246094 750 C 953.246094 776.675781 948.183594 802.511719 938.195312 826.902344 Z M 826.828125 938.230469 C 815.714844 942.78125 804.308594 946.308594 792.65625 948.800781 C 802.15625 937.59375 810.769531 922.5 818.152344 903.832031 C 826.640625 882.371094 833.140625 857.273438 837.425781 829.972656 C 849.082031 832.207031 860.605469 834.875 871.964844 838.011719 L 870.054688 850.25 C 842.210938 871.773438 826.839844 904.460938 826.828125 938.230469 Z M 699.253906 896.933594 C 691.234375 876.65625 685.097656 852.851562 681.035156 826.871094 C 703.675781 823.488281 726.761719 821.757812 749.96875 821.757812 C 773.296875 821.757812 796.34375 823.464844 818.9375 826.828125 C 814.875 852.824219 808.726562 876.644531 800.703125 896.933594 C 786.539062 932.742188 768.046875 953.277344 749.96875 953.277344 C 731.886719 953.277344 713.40625 932.738281 699.25 896.933594 Z M 675.289062 750 C 675.289062 729.996094 676.394531 710.449219 678.519531 691.792969 C 701.96875 695.273438 725.84375 697.042969 749.96875 697.042969 C 774.09375 697.042969 797.953125 695.246094 821.441406 691.75 C 823.570312 710.421875 824.679688 729.984375 824.679688 750 C 824.679688 770.015625 823.574219 789.566406 821.445312 808.230469 C 798.015625 804.757812 774.132812 802.988281 749.964844 802.988281 C 725.925781 802.988281 702.003906 804.78125 678.523438 808.277344 C 676.394531 789.597656 675.285156 770.027344 675.285156 749.996094 Z M 673.125 561.761719 C 684.234375 557.214844 695.644531 553.6875 707.292969 551.195312 C 697.796875 562.40625 689.183594 577.503906 681.800781 596.179688 C 673.316406 617.644531 666.820312 642.746094 662.539062 670.046875 C 650.878906 667.816406 639.347656 665.148438 627.96875 662.015625 L 629.882812 649.746094 C 657.742188 628.210938 673.121094 595.519531 673.125 561.761719 Z M 699.253906 603.078125 C 713.40625 567.261719 731.894531 546.722656 749.96875 546.722656 C 768.046875 546.722656 786.539062 567.265625 800.703125 603.078125 C 808.726562 623.363281 814.871094 647.175781 818.9375 673.15625 C 796.285156 676.542969 773.191406 678.277344 749.96875 678.277344 C 726.75 678.277344 703.644531 676.5625 681.027344 673.195312 C 685.085938 647.195312 691.230469 623.371094 699.253906 603.078125 Z M 923.484375 644.207031 C 896.261719 655.628906 867.316406 664.28125 837.421875 670.007812 C 833.136719 642.722656 826.640625 617.636719 818.152344 596.179688 C 810.78125 577.539062 802.183594 562.460938 792.699219 551.257812 C 847.914062 563.117188 894.878906 597.460938 923.484375 644.207031 Z M 475.5 596.210938 C 456.414062 548.765625 479.484375 494.628906 526.929688 475.53125 C 549.917969 466.285156 575.132812 466.539062 597.921875 476.246094 C 620.710938 485.957031 638.355469 503.96875 647.605469 526.960938 C 663.613281 566.71875 650.507812 611.925781 615.730469 636.894531 C 613.6875 638.359375 612.320312 640.582031 611.933594 643.066406 L 607.019531 674.542969 L 581.683594 655.25 C 580.039062 654 578.042969 653.332031 576 653.332031 C 575.558594 653.332031 575.113281 653.363281 574.671875 653.429688 C 570.21875 654.0625 565.792969 654.375 561.40625 654.375 C 559.875 654.375 558.351562 654.320312 556.832031 654.246094 C 556.386719 654.1875 555.941406 654.164062 555.496094 654.171875 C 520.445312 651.929688 489.070312 629.902344 475.503906 596.207031 Z M 561.734375 673.121094 C 565.589844 673.109375 569.464844 672.921875 573.363281 672.5 L 608.179688 699.011719 C 609.839844 700.273438 611.84375 700.929688 613.867188 700.929688 C 615.046875 700.929688 616.234375 700.703125 617.367188 700.25 C 620.433594 699.015625 622.625 696.257812 623.136719 692.992188 L 625.058594 680.65625 C 636.570312 683.769531 648.226562 686.4375 660.003906 688.664062 C 657.714844 708.351562 656.527344 728.953125 656.527344 750 C 656.527344 771.046875 657.71875 791.699219 660.011719 811.40625 C 627.808594 817.5 596.640625 826.859375 567.382812 839.289062 C 554.140625 812.320312 546.691406 782.015625 546.691406 750 C 546.691406 723.363281 551.757812 697.535156 561.734375 673.121094 Z M 576.46875 855.816406 C 603.695312 844.398438 632.644531 835.746094 662.546875 830.019531 C 666.828125 857.304688 673.320312 882.382812 681.800781 903.832031 C 689.171875 922.46875 697.765625 937.542969 707.242188 948.746094 C 652.035156 936.886719 605.078125 902.554688 576.46875 855.820312 Z M 1023.71875 974.785156 C 1014.007812 997.574219 996 1015.21875 973.011719 1024.464844 C 950.03125 1033.714844 924.824219 1033.460938 902.027344 1023.746094 C 879.230469 1014.035156 861.578125 996.027344 852.332031 973.042969 C 836.347656 933.265625 849.453125 888.054688 884.207031 863.101562 C 886.246094 861.636719 887.617188 859.410156 888.003906 856.925781 L 891.730469 833.039062 C 891.746094 832.960938 891.757812 832.882812 891.769531 832.804688 L 892.914062 825.457031 L 918.285156 844.777344 C 920.285156 846.300781 922.8125 846.960938 925.304688 846.601562 C 931.617188 845.691406 937.890625 845.457031 944.054688 845.820312 C 944.144531 845.820312 944.234375 845.832031 944.324219 845.832031 C 944.328125 845.832031 944.328125 845.832031 944.332031 845.832031 C 979.425781 848.007812 1010.84375 870.039062 1024.4375 903.785156 C 1033.6875 926.777344 1033.433594 951.992188 1023.71875 974.78125 Z M 544.371094 586.277344 L 578.730469 586.277344 L 587.554688 608.199219 C 589.03125 611.859375 592.546875 614.078125 596.261719 614.078125 C 597.429688 614.078125 598.613281 613.863281 599.761719 613.398438 C 604.570312 611.464844 606.898438 606 604.960938 601.191406 L 570.253906 514.972656 C 568.824219 511.421875 565.378906 509.09375 561.550781 509.09375 C 557.71875 509.09375 554.277344 511.421875 552.847656 514.972656 L 518.136719 601.191406 C 516.203125 605.996094 518.53125 611.464844 523.339844 613.398438 C 528.144531 615.332031 533.609375 613.007812 535.546875 608.199219 L 544.371094 586.28125 Z M 561.550781 543.601562 L 571.179688 567.511719 L 551.925781 567.511719 Z M 987.023438 911.3125 C 987.023438 916.496094 982.824219 920.695312 977.640625 920.695312 L 968.171875 920.695312 C 968.902344 934.339844 965.257812 947.925781 957.464844 959.886719 C 955.949219 962.21875 954.28125 964.453125 952.492188 966.597656 C 959.316406 970.847656 967.222656 973.9375 975.847656 975.519531 C 980.945312 976.453125 984.316406 981.34375 983.382812 986.441406 C 982.554688 990.964844 978.609375 994.132812 974.164062 994.132812 C 973.605469 994.132812 973.035156 994.082031 972.460938 993.976562 C 959.664062 991.628906 948.0625 986.652344 938.347656 979.699219 C 928.53125 986.722656 916.890625 991.675781 904.304688 993.980469 C 903.734375 994.082031 903.164062 994.136719 902.605469 994.136719 C 898.160156 994.136719 894.214844 990.96875 893.386719 986.441406 C 892.453125 981.347656 895.828125 976.457031 900.925781 975.523438 C 909.421875 973.964844 917.328125 970.890625 924.207031 966.597656 C 917.144531 958.101562 912.148438 948.132812 909.84375 937.238281 C 908.769531 932.171875 912.011719 927.191406 917.078125 926.117188 C 922.148438 925.035156 927.128906 928.285156 928.203125 933.355469 C 929.832031 941.050781 933.359375 948.140625 938.359375 954.261719 C 939.570312 952.78125 940.703125 951.246094 941.742188 949.648438 C 947.511719 940.789062 950.128906 930.726562 949.378906 920.699219 L 939.042969 920.699219 C 938.824219 920.714844 938.605469 920.734375 938.382812 920.734375 C 938.160156 920.734375 937.945312 920.714844 937.726562 920.699219 L 899.125 920.699219 C 893.945312 920.699219 889.742188 916.5 889.742188 911.316406 C 889.742188 906.136719 893.945312 901.9375 899.125 901.9375 L 929 901.9375 L 929 892.121094 C 929 886.9375 933.199219 882.738281 938.382812 882.738281 C 943.5625 882.738281 947.765625 886.9375 947.765625 892.121094 L 947.765625 901.9375 L 977.636719 901.9375 C 982.820312 901.9375 987.019531 906.136719 987.019531 911.316406 Z M 987.023438 911.3125 " fill-opacity="1" fill-rule="nonzero"/></svg>